<svg version="1.2" xmlns="http://www.w3.org/2000/svg" viewBox="0 0 512 512" width="512" height="512"><style>.a{fill:#000898}</style><path class="a" d="m352 256c0 22.2-1.2 43.6-3.3 64h-185.3c-2.2-20.4-3.3-41.8-3.3-64 0-22.2 1.2-43.6 3.3-64h185.3c2.2 20.4 3.3 41.8 3.3 64zm28.8-64h123.1c5.3 20.5 8.1 41.9 8.1 64 0 22.1-2.8 43.5-8.1 64h-123.1c2.1-20.6 3.2-42 3.2-64 0-22-1.1-43.4-3.2-64zm112.6-32h-116.7c-10-63.9-29.8-117.4-55.3-151.6 78.3 20.7 142 77.5 171.9 151.6zm-149.1 0h-176.6c6.1-36.4 15.5-68.6 27-94.7 10.5-23.6 22.2-40.7 33.5-51.5 11.2-10.6 20.5-13.8 27.8-13.8 7.3 0 16.6 3.2 27.8 13.8 11.3 10.8 23 27.9 33.5 51.5 11.6 26 20.9 58.2 27 94.7zm-209 0h-116.7c30-74.1 93.6-130.9 172-151.6-25.5 34.2-45.3 87.7-55.3 151.6zm-127.2 32h123.1c-2.1 20.6-3.2 42-3.2 64 0 22 1.1 43.4 3.2 64h-123.1c-5.3-20.5-8.1-41.9-8.1-64 0-22.1 2.8-43.5 8.1-64zm186.6 254.6c-11.6-26-20.9-58.2-27-94.6h176.6c-6.1 36.4-15.5 68.6-27 94.6-10.5 23.6-22.2 40.7-33.5 51.5-11.2 10.7-20.5 13.9-27.8 13.9-7.3 0-16.6-3.2-27.8-13.8-11.3-10.8-23-27.9-33.5-51.5zm-59.4-94.6c10 63.9 29.8 117.4 55.3 151.6-78.4-20.7-142-77.5-172-151.6zm358.1 0c-30 74.1-93.6 130.9-171.9 151.6 25.5-34.2 45.2-87.7 55.3-151.6h116.7z"/></svg>