<svg version="1.2" xmlns="http://www.w3.org/2000/svg" viewBox="0 0 448 512" width="448" height="512"><style>.a{fill:#000898}</style><path fill-rule="evenodd" class="a" d="m448 416c0 35.3-28.7 64-64 64h-320c-35.3 0-64-28.7-64-64v-320c0-35.3 28.7-64 64-64h320c35.3 0 64 28.7 64 64zm-91-27.1c18.7-18.7 24.5-41.4 25.8-67 1.5-26.5 1.5-105.6 0-131.9-1.2-25.6-7.1-48.3-25.8-67-18.7-18.7-41.4-24.5-67-25.8-26.4-1.5-105.6-1.5-132 0-25.5 1.2-48.3 7.1-67 25.8-18.7 18.7-24.5 41.4-25.8 67-1.5 26.4-1.5 105.6 0 132 1.2 25.6 7.1 48.3 25.8 67 18.7 18.7 41.4 24.6 67 25.9 26.4 1.5 105.6 1.5 132 0 25.6-1.3 48.3-7.2 67-25.9zm-20.3-245.8c5.2 5.3 9.3 11.5 12 18.4 7.2 18.1 6.8 57.5 6.5 83-0.1 4.3-0.1 8.1-0.1 11.4 0 3.3 0.1 7.2 0.1 11.4 0.3 25.6 0.7 65-6.5 83-2.7 6.9-6.7 13.2-12 18.4-5.3 5.2-11.5 9.3-18.4 12-18.1 7.2-57.4 6.8-82.9 6.5-4.2-0.1-8.1-0.1-11.4-0.1-3.3 0-7.1 0.1-11.2 0.1-25.5 0.3-65 0.6-83.1-6.5-6.9-2.7-13.2-6.7-18.4-12-5.2-5.3-9.3-11.5-12-18.4-7.1-18.1-6.7-57.7-6.5-83.2 0.1-4.1 0.1-7.9 0.1-11.1 0-3.2-0.1-7-0.1-11.1-0.2-25.5-0.6-65.1 6.5-83.2 2.7-6.9 6.7-13.2 12-18.4 5.3-5.2 11.5-9.3 18.4-12 18.1-7.2 57.4-6.8 82.9-6.5 4.2 0.1 8.1 0.1 11.4 0.1 3.3 0 7.1-0.1 11.2-0.1 25.5-0.3 65-0.6 83.1 6.5 6.9 2.7 13.2 6.8 18.4 12zm-37.8 43.4c3.1 2.1 6.8 3.2 10.6 3.2 2.5 0 5-0.5 7.3-1.5 2.3-1 4.5-2.4 6.2-4.2 1.7-1.8 3.2-3.9 4.1-6.2 0.9-2.3 1.4-4.8 1.4-7.3 0-3.8-1.1-7.5-3.2-10.6-2.1-3.1-5.1-5.5-8.6-7-3.5-1.5-7.4-1.8-11.1-1.1-3.7 0.7-7.2 2.5-9.8 5.2-2.6 2.7-4.5 6-5.2 9.8-0.7 3.8-0.4 7.6 1.1 11.1 1.5 3.5 4 6.5 7.1 8.6zm-29.4 1.3c-18.1-12.1-40.2-16.5-61.6-12.2-21.3 4.2-40.1 16.8-52.1 34.9-12.1 18-16.5 40.2-12.3 61.5 4.3 21.3 16.8 40.1 34.9 52.2 18.1 12.1 40.2 16.5 61.6 12.2 21.3-4.2 40.1-16.7 52.2-34.8 12.1-18.1 16.5-40.2 12.2-61.6-4.2-21.3-16.7-40.1-34.8-52.2zm-75.1 23.9c11.8-7.8 26.2-10.7 40-7.9 13.9 2.7 26.1 10.9 34 22.6 7.8 11.8 10.7 26.2 7.9 40-2.7 13.9-10.9 26.1-22.6 33.9-11.8 7.9-26.2 10.8-40 8-13.9-2.7-26.1-10.9-34-22.6-7.8-11.8-10.7-26.2-7.9-40 2.7-13.9 10.9-26.1 22.6-34z"/></svg>